<svg xmlns="http://www.w3.org/2000/svg" xmlns:xlink="http://www.w3.org/1999/xlink" id="canvas" height="auto" version="1.1" viewBox="0 0 480 240" width="auto" style="width: auto; height: auto;"><rect width="480" height="240" fill="transparent"/><mask id="mask" mask-type="alpha" maskUnits="userSpaceOnUse"><rect transform="translate(0, 0)" width="480" height="240" fill="white"/></mask><svg><path transform="translate(0, 0) translate(30,30) rotate(180) translate(-30,-30)" d="M0 60C33.1371 60 60 33.1371 60 5.24537e-06L5.24537e-06 0L0 60Z" fill="#0063db"/></svg><svg><path transform="translate(0, 60) translate(30,30) rotate(0) translate(-30,-30)" d="M0 60C33.1371 60 60 33.1371 60 5.24537e-06L5.24537e-06 0L0 60Z" fill="#afbbf2"/></svg><svg><path transform="translate(60, 0) translate(30,30) rotate(270) translate(-30,-30)" d="M0 60C33.1371 60 60 33.1371 60 5.24537e-06L5.24537e-06 0L0 60Z" fill="#d90000"/></svg><svg><path transform="translate(60, 60) translate(30,30) rotate(180) translate(-30,-30)" d="M0 60C33.1371 60 60 33.1371 60 5.24537e-06L5.24537e-06 0L0 60Z" fill="#d90000"/></svg><svg><path transform="translate(60, 120) translate(30,30) rotate(90) translate(-30,-30)" d="M0 60C33.1371 60 60 33.1371 60 5.24537e-06L5.24537e-06 0L0 60Z" fill="#d90000"/></svg><svg><path transform="translate(60, 180) translate(30,30) rotate(90) translate(-30,-30)" d="M0 60C33.1371 60 60 33.1371 60 5.24537e-06L5.24537e-06 0L0 60Z" fill="#0063db"/></svg><svg><path transform="translate(120, 0) translate(30,30) rotate(180) translate(-30,-30)" d="M0 60C33.1371 60 60 33.1371 60 5.24537e-06L5.24537e-06 0L0 60Z" fill="#d90000"/></svg><svg><path transform="translate(120, 60) translate(30,30) rotate(0) translate(-30,-30)" d="M0 60C33.1371 60 60 33.1371 60 5.24537e-06L5.24537e-06 0L0 60Z" fill="#0063db"/></svg><svg><path transform="translate(120, 120) translate(30,30) rotate(90) translate(-30,-30)" d="M0 60C33.1371 60 60 33.1371 60 5.24537e-06L5.24537e-06 0L0 60Z" fill="#afbbf2"/></svg><svg><path transform="translate(120, 180) translate(30,30) rotate(180) translate(-30,-30)" d="M0 60C33.1371 60 60 33.1371 60 5.24537e-06L5.24537e-06 0L0 60Z" fill="#afbbf2"/></svg><svg><path transform="translate(180, 60) translate(30,30) rotate(180) translate(-30,-30)" d="M0 60C33.1371 60 60 33.1371 60 5.24537e-06L5.24537e-06 0L0 60Z" fill="#d90000"/></svg><svg><path transform="translate(180, 120) translate(30,30) rotate(90) translate(-30,-30)" d="M0 60C33.1371 60 60 33.1371 60 5.24537e-06L5.24537e-06 0L0 60Z" fill="#afbbf2"/></svg><svg><path transform="translate(240, 0) translate(30,30) rotate(90) translate(-30,-30)" d="M0 60C33.1371 60 60 33.1371 60 5.24537e-06L5.24537e-06 0L0 60Z" fill="#0063db"/></svg><svg><path transform="translate(240, 180) translate(30,30) rotate(90) translate(-30,-30)" d="M0 60C33.1371 60 60 33.1371 60 5.24537e-06L5.24537e-06 0L0 60Z" fill="#0063db"/></svg><svg><path transform="translate(300, 0) translate(30,30) rotate(90) translate(-30,-30)" d="M0 60C33.1371 60 60 33.1371 60 5.24537e-06L5.24537e-06 0L0 60Z" fill="#0063db"/></svg><svg><path transform="translate(300, 60) translate(30,30) rotate(90) translate(-30,-30)" d="M0 60C33.1371 60 60 33.1371 60 5.24537e-06L5.24537e-06 0L0 60Z" fill="#d90000"/></svg><svg><path transform="translate(300, 120) translate(30,30) rotate(180) translate(-30,-30)" d="M0 60C33.1371 60 60 33.1371 60 5.24537e-06L5.24537e-06 0L0 60Z" fill="#d90000"/></svg><svg><path transform="translate(300, 180) translate(30,30) rotate(0) translate(-30,-30)" d="M0 60C33.1371 60 60 33.1371 60 5.24537e-06L5.24537e-06 0L0 60Z" fill="#0063db"/></svg><svg><path transform="translate(360, 0) translate(30,30) rotate(270) translate(-30,-30)" d="M0 60C33.1371 60 60 33.1371 60 5.24537e-06L5.24537e-06 0L0 60Z" fill="#d90000"/></svg><svg><path transform="translate(360, 60) translate(30,30) rotate(90) translate(-30,-30)" d="M0 60C33.1371 60 60 33.1371 60 5.24537e-06L5.24537e-06 0L0 60Z" fill="#d90000"/></svg><svg><path transform="translate(360, 120) translate(30,30) rotate(180) translate(-30,-30)" d="M0 60C33.1371 60 60 33.1371 60 5.24537e-06L5.24537e-06 0L0 60Z" fill="#d90000"/></svg><svg><path transform="translate(360, 180) translate(30,30) rotate(180) translate(-30,-30)" d="M0 60C33.1371 60 60 33.1371 60 5.24537e-06L5.24537e-06 0L0 60Z" fill="#0063db"/></svg><svg><path transform="translate(420, 120) translate(30,30) rotate(180) translate(-30,-30)" d="M0 60C33.1371 60 60 33.1371 60 5.24537e-06L5.24537e-06 0L0 60Z" fill="#0063db"/></svg><svg><path transform="translate(420, 180) translate(30,30) rotate(180) translate(-30,-30)" d="M0 60C33.1371 60 60 33.1371 60 5.24537e-06L5.24537e-06 0L0 60Z" fill="#0063db"/></svg></svg>